<svg xmlns="http://www.w3.org/2000/svg" viewBox="0 0 450 180" width="450" height="180" preserveAspectRatio="xMidYMid meet" style="width: 100%; height: 100%; transform: translate3d(0px, 0px, 0px);"><defs><clipPath id="__lottie_element_87"><rect width="450" height="180" x="0" y="0"></rect></clipPath></defs><g clip-path="url(#__lottie_element_87)"><g transform="matrix(1,0,0,1,20.93499755859375,16.277999877929688)" opacity="1" style="display: block;"><g opacity="1" transform="matrix(1,0,0,1,329.1310119628906,84.93099975585938)"><path fill="rgb(255,254,255)" fill-opacity="1" d=" M-79.53199768066406,-61.53200149536133 C-79.53199768066406,-61.53200149536133 -0.003000000026077032,18.006000518798828 -0.003000000026077032,18.006000518798828 C-0.003000000026077032,18.006000518798828 79.53199768066406,-61.53099822998047 79.53199768066406,-61.53099822998047 C79.53199768066406,-61.53099822998047 79.53199768066406,54.03200149536133 79.53199768066406,54.03200149536133 C79.53199768066406,58.17499923706055 76.17500305175781,61.53200149536133 72.03199768066406,61.53200149536133 C67.88999938964844,61.53200149536133 64.53199768066406,58.17499923706055 64.53199768066406,54.03200149536133 C64.53199768066406,54.03200149536133 64.53199768066406,-25.31800079345703 64.53199768066406,-25.31800079345703 C64.53199768066406,-25.31800079345703 -0.003000000026077032,39.220001220703125 -0.003000000026077032,39.220001220703125 C-0.003000000026077032,39.220001220703125 -64.53199768066406,-25.31599998474121 -64.53199768066406,-25.31599998474121 C-64.53199768066406,-25.31599998474121 -64.53199768066406,54.03200149536133 -64.53199768066406,54.03200149536133 C-64.53199768066406,58.17499923706055 -67.88899993896484,61.53200149536133 -72.03199768066406,61.53200149536133 C-76.17500305175781,61.53200149536133 -79.53199768066406,58.17499923706055 -79.53199768066406,54.03200149536133 C-79.53199768066406,54.03200149536133 -79.53199768066406,-61.53200149536133 -79.53199768066406,-61.53200149536133z"></path></g><g opacity="1" transform="matrix(1,0,0,-1,329.1319885253906,28.70599937438965)"><path fill="rgb(255,254,255)" fill-opacity="1" d=" M38.071998596191406,27.725000381469727 C36.152000427246094,27.725000381469727 34.231998443603516,26.993000030517578 32.766998291015625,25.527999877929688 C32.766998291015625,25.527999877929688 0.003000000026077032,-7.243000030517578 0.003000000026077032,-7.243000030517578 C0.003000000026077032,-7.243000030517578 -32.768001556396484,25.52899932861328 -32.768001556396484,25.52899932861328 C-35.696998596191406,28.457000732421875 -40.44599914550781,28.457000732421875 -43.374000549316406,25.527999877929688 C-46.303001403808594,22.599000930786133 -46.303001403808594,17.85099983215332 -43.374000549316406,14.920999526977539 C-43.374000549316406,14.920999526977539 0.003000000026077032,-28.457000732421875 0.003000000026077032,-28.457000732421875 C0.003000000026077032,-28.457000732421875 43.375,14.92199993133545 43.375,14.92199993133545 C46.303001403808594,17.85099983215332 46.303001403808594,22.600000381469727 43.374000549316406,25.52899932861328 C41.909000396728516,26.993000030517578 39.99100112915039,27.725000381469727 38.071998596191406,27.725000381469727z"></path></g><g opacity="1" transform="matrix(1,0,0,1,204.5850067138672,73.72200012207031)"><path fill="rgb(255,254,255)" fill-opacity="1" d=" M0,72.73999786376953 C-4.14300012588501,72.73999786376953 -7.5,69.38300323486328 -7.5,65.23999786376953 C-7.5,65.23999786376953 -7.5,-65.23999786376953 -7.5,-65.23999786376953 C-7.5,-69.38200378417969 -4.14300012588501,-72.73999786376953 0,-72.73999786376953 C4.142000198364258,-72.73999786376953 7.5,-69.38200378417969 7.5,-65.23999786376953 C7.5,-65.23999786376953 7.5,65.23999786376953 7.5,65.23999786376953 C7.5,69.38300323486328 4.142000198364258,72.73999786376953 0,72.73999786376953z"></path></g><g opacity="1" transform="matrix(1,0,0,1,79.78299713134766,118.73799896240234)"><path fill="rgb(255,254,255)" fill-opacity="1" d=" M38.071998596191406,27.725000381469727 C36.152000427246094,27.725000381469727 34.231998443603516,26.993000030517578 32.766998291015625,25.527999877929688 C32.766998291015625,25.527999877929688 0.003000000026077032,-7.243000030517578 0.003000000026077032,-7.243000030517578 C0.003000000026077032,-7.243000030517578 -32.768001556396484,25.52899932861328 -32.768001556396484,25.52899932861328 C-35.696998596191406,28.457000732421875 -40.44599914550781,28.457000732421875 -43.374000549316406,25.527999877929688 C-46.303001403808594,22.599000930786133 -46.303001403808594,17.85099983215332 -43.374000549316406,14.920999526977539 C-43.374000549316406,14.920999526977539 0.003000000026077032,-28.457000732421875 0.003000000026077032,-28.457000732421875 C0.003000000026077032,-28.457000732421875 43.375,14.92199993133545 43.375,14.92199993133545 C46.303001403808594,17.85099983215332 46.303001403808594,22.600000381469727 43.374000549316406,25.52899932861328 C41.909000396728516,26.993000030517578 39.99100112915039,27.725000381469727 38.071998596191406,27.725000381469727z"></path></g><g opacity="1" transform="matrix(1,0,0,-1,79.78199768066406,62.51300048828125)"><path fill="rgb(255,254,255)" fill-opacity="1" d=" M-79.53199768066406,-61.53200149536133 C-79.53199768066406,-61.53200149536133 -0.003000000026077032,18.006000518798828 -0.003000000026077032,18.006000518798828 C-0.003000000026077032,18.006000518798828 79.53199768066406,-61.53099822998047 79.53199768066406,-61.53099822998047 C79.53199768066406,-61.53099822998047 79.53199768066406,54.03200149536133 79.53199768066406,54.03200149536133 C79.53199768066406,58.17499923706055 76.17500305175781,61.53200149536133 72.03199768066406,61.53200149536133 C67.88999938964844,61.53200149536133 64.53199768066406,58.17499923706055 64.53199768066406,54.03200149536133 C64.53199768066406,54.03200149536133 64.53199768066406,-25.31800079345703 64.53199768066406,-25.31800079345703 C64.53199768066406,-25.31800079345703 -0.003000000026077032,39.220001220703125 -0.003000000026077032,39.220001220703125 C-0.003000000026077032,39.220001220703125 -64.53199768066406,-25.31599998474121 -64.53199768066406,-25.31599998474121 C-64.53199768066406,-25.31599998474121 -64.53199768066406,54.03200149536133 -64.53199768066406,54.03200149536133 C-64.53199768066406,58.17499923706055 -67.88899993896484,61.53200149536133 -72.03199768066406,61.53200149536133 C-76.17500305175781,61.53200149536133 -79.53199768066406,58.17499923706055 -79.53199768066406,54.03200149536133 C-79.53199768066406,54.03200149536133 -79.53199768066406,-61.53200149536133 -79.53199768066406,-61.53200149536133z"></path></g></g></g></svg>